# xmcd
#
# Track frame offsets:
#	150
#	24352
#	38930
#	54085
#	70387
#	95900
#	109800
#	129237
#	153215
#	180945
#	195620
#	219705
#	236155
#	261917
#	299912
#
# Disc length: 4214 seconds
#
# Revision: 3
# Processed by: cddbd v1.5.1PL0 Copyright (c) Steve Scherf et al.
# Submitted via: audiograbber 1.83.01
#
DISCID=dc10740f
DTITLE=Bluesbox [CD3) - Bluesbox [CD3)
DYEAR=2000
DGENRE=Blues
TTITLE0=Muddy Waters - Mannish Boy-1977
TTITLE1=Eric Clapton - Hard Times-1989
TTITLE2=Robert Cray - Don't Touch Me-1986
TTITLE3=Lucky Peterson - Locked Out Of Love-1990
TTITLE4=Jeff Healey Band - Blue Jean Blues-1988
TTITLE5=Fabulous Thunderbirds - Down At Antones-1986
TTITLE6=Jimmy Vaughan - Flamenco Dancer-1994
TTITLE7=Albert Collins - Cold Cold Feeling-1981
TTITLE8=Walter Trout Band - Got A Broken Heart-1997
TTITLE9=Paladins - Lawdy Lawdy Miss Mary-1990
TTITLE10=Lonnie Mack - Stop-1985
TTITLE11=Johnny Winter - Master Mechanic-1985
TTITLE12=Etta James - I Sing The Blues-1992
TTITLE13=Buddy Guy - Five Long Years-1991
TTITLE14=Omar and The Howlers - Ton Of Blues-1996
EXTD=TVCD 524 920-2
EXTT0=
EXTT1=
EXTT2=
EXTT3=
EXTT4=
EXTT5=
EXTT6=
EXTT7=
EXTT8=
EXTT9=
EXTT10=
EXTT11=
EXTT12=
EXTT13=
EXTT14=
PLAYORDER=
